<svg fill="none" height="255" viewBox="0 0 1065 255" width="1065" xmlns="http://www.w3.org/2000/svg"
    xmlns:xlink="http://www.w3.org/1999/xlink">
    <radialGradient id="a" cx="674.922" cy="127.907" gradientUnits="userSpaceOnUse" r="126.942">
        <stop offset=".56" stop-color="#fab216" />
        <stop offset="1" stop-color="#000" stop-opacity="0" />
    </radialGradient>
    <clipPath id="b">
        <path d="m0 0h1062.501v255h-1062.501z" />
    </clipPath>
    <g clip-path="url(#b)">
        <path
            d="m692.058 305.413c-28.878-54.708-43.972-115.636-43.972-177.498 0-61.8614 15.094-122.78902 43.972-177.497l9.714 3.4558c-28.313 53.64363-43.111 113.3847-43.111 174.0412 0 60.657 14.798 120.398 43.111 174.042z"
            fill="url(#a)" />
        <g fill="#000">
            <path
                d="m110.364 150.55c0 18.044-14.7474 27.599-38.4127 27.599h-71.8875793v-100.3306h67.7310793c22.0727 0 36.8352 9.0297 36.8352 25.4806 0 11.451-7.0227 21.77-21.7856 22.774 15.6229.971 27.5196 8.137 27.5196 24.477zm-93.4511-30.529h48.1586c13.473 0 22.5027-3.01 22.5027-14.03 0-11.0209-9.0297-13.8397-22.5027-13.8397h-48.1586zm75.8212 28.809c0-11.323-9.0298-14.906-24.0793-14.906h-51.7419v29.892h51.7419c15.0495 0 24.0793-3.663 24.0793-14.986z" />
            <path d="m228.068 162.876v15.273h-91.157v-100.3306h17.199v85.1216z" />
            <path
                d="m338.862 153.85h-64.355l-12.74 24.223h-18.633l54.322-100.3308h18.919l54.147 100.3308h-18.76zm-7.549-14.62-24.557-46.4223-24.509 46.4223z" />
            <path
                d="m476.681 148.113 15.926 7.963c-9.46 14.62-27.806 25.083-53.175 25.083-37.553 0-61.202-20.21-61.202-53.176 0-32.9653 23.649-53.1588 61.918-53.1588 24.653 0 42.999 10.6064 52.315 24.9393l-16.053 7.9625c-7.453-12.3101-20.209-17.7567-36.628-17.7567-26.516 0-44.145 12.8837-44.145 37.9667 0 25.082 17.629 37.982 44.145 37.982 16.403-.032 29.303-5.287 36.899-17.805z" />
            <path
                d="m606.713 178.149-43.429-50.739-29.956 24.143v26.596h-17.199v-100.3306h17.199v55.0226l68.225-55.0226h23.22l-48.446 39.5426 51.455 60.788z" />
            <path
                d="m797.404 148.403c0 19.111-18.776 32.679-52.889 32.679-23.506 0-44.272-6.879-59.895-20.352l10.749-12.183c13.617 12.183 29.654 17.629 49.863 17.629 22.296 0 34.686-5.876 34.686-16.339s-12.613-13.043-37.839-15.193c-27.647-2.293-53.733-8.457-53.733-28.937 0-19.9226 23.076-30.959 51.869-30.959 21.786 0 40.276 6.4499 52.315 16.6263l-10.893 11.7527c-10.319-9.0295-24.509-13.3294-41.135-13.4727-15.925-.1433-34.813 3.7266-34.813 14.9067 0 10.606 16.754 12.453 38.683 14.189 31.262 2.421 53.032 8.727 53.032 29.653z" />
            <path
                d="m913.023 178.149-43.428-50.818-29.956 24.222v26.596h-17.2v-100.3306h17.2v55.0226l68.177-55.0226h23.219l-48.445 39.5426 51.503 60.788z" />
            <path
                d="m966.469 77.8184 38.221 50.8656 38.03-50.8656h19.78l-49.37 65.6286v34.702h-17.199v-34.765l-49.385-65.5656z" />
        </g>
    </g>
</svg>